<?xml version="1.0" encoding="UTF-8" standalone="no"?><svg xmlns="http://www.w3.org/2000/svg" id="icon" width="64" height="64" viewBox="0 0 64 64" preserveAspectRatio="xMidYMid meet" rendering="crispEdges"><rect id="1-1" x="0" y="0" width="4" height="4" shape-rendering="crispEdges" style="fill:#ffffff;opacity:255;"></rect><rect id="2-1" x="4" y="0" width="4" height="4" shape-rendering="crispEdges" style="fill:#ffffff;opacity:255;"></rect><rect id="3-1" x="8" y="0" width="4" height="4" shape-rendering="crispEdges" style="fill:#ffffff;opacity:255;"></rect><rect id="4-1" x="12" y="0" width="4" height="4" shape-rendering="crispEdges" style="fill:#ffffff;opacity:255;"></rect><rect id="5-1" x="16" y="0" width="4" height="4" shape-rendering="crispEdges" style="fill:#ffffff;opacity:255;"></rect><rect id="6-1" x="20" y="0" width="4" height="4" shape-rendering="crispEdges" style="fill:#ffffff;opacity:255;"></rect><rect id="7-1" x="24" y="0" width="4" height="4" shape-rendering="crispEdges" style="fill:#ffffff;opacity:255;"></rect><rect id="8-1" x="28" y="0" width="4" height="4" shape-rendering="crispEdges" style="fill:#ffffff;opacity:255;"></rect><rect id="9-1" x="32" y="0" width="4" height="4" shape-rendering="crispEdges" style="fill:#ffffff;opacity:255;"></rect><rect id="10-1" x="36" y="0" width="4" height="4" shape-rendering="crispEdges" style="fill:#ffffff;opacity:255;"></rect><rect id="11-1" x="40" y="0" width="4" height="4" shape-rendering="crispEdges" style="fill:#ffffff;opacity:255;"></rect><rect id="12-1" x="44" y="0" width="4" height="4" shape-rendering="crispEdges" style="fill:#ffffff;opacity:255;"></rect><rect id="13-1" x="48" y="0" width="4" height="4" shape-rendering="crispEdges" style="fill:#ffffff;opacity:255;"></rect><rect id="14-1" x="52" y="0" width="4" height="4" shape-rendering="crispEdges" style="fill:#ffffff;opacity:255;"></rect><rect id="15-1" x="56" y="0" width="4" height="4" shape-rendering="crispEdges" style="fill:#ffffff;opacity:255;"></rect><rect id="16-1" x="60" y="0" width="4" height="4" shape-rendering="crispEdges" style="fill:#ffffff;opacity:255;"></rect><rect id="1-2" x="0" y="4" width="4" height="4" shape-rendering="crispEdges" style="fill:#ffffff;opacity:255;"></rect><rect id="16-2" x="60" y="4" width="4" height="4" shape-rendering="crispEdges" style="fill:#ffffff;opacity:255;"></rect><rect id="1-3" x="0" y="8" width="4" height="4" shape-rendering="crispEdges" style="fill:#ffffff;opacity:255;"></rect><rect id="6-3" x="20" y="8" width="4" height="4" shape-rendering="crispEdges" style="fill:#1f2929;opacity:255;"></rect><rect id="7-3" x="24" y="8" width="4" height="4" shape-rendering="crispEdges" style="fill:#1f2929;opacity:255;"></rect><rect id="8-3" x="28" y="8" width="4" height="4" shape-rendering="crispEdges" style="fill:#1f2929;opacity:255;"></rect><rect id="9-3" x="32" y="8" width="4" height="4" shape-rendering="crispEdges" style="fill:#1f2929;opacity:255;"></rect><rect id="10-3" x="36" y="8" width="4" height="4" shape-rendering="crispEdges" style="fill:#1f2929;opacity:255;"></rect><rect id="11-3" x="40" y="8" width="4" height="4" shape-rendering="crispEdges" style="fill:#1f2929;opacity:255;"></rect><rect id="12-3" x="44" y="8" width="4" height="4" shape-rendering="crispEdges" style="fill:#1f2929;opacity:255;"></rect><rect id="13-3" x="48" y="8" width="4" height="4" shape-rendering="crispEdges" style="fill:#1f2929;opacity:255;"></rect><rect id="16-3" x="60" y="8" width="4" height="4" shape-rendering="crispEdges" style="fill:#ffffff;opacity:255;"></rect><rect id="1-4" x="0" y="12" width="4" height="4" shape-rendering="crispEdges" style="fill:#ffffff;opacity:255;"></rect><rect id="5-4" x="16" y="12" width="4" height="4" shape-rendering="crispEdges" style="fill:#1f2929;opacity:255;"></rect><rect id="6-4" x="20" y="12" width="4" height="4" shape-rendering="crispEdges" style="fill:#6ebf41;opacity:255;"></rect><rect id="7-4" x="24" y="12" width="4" height="4" shape-rendering="crispEdges" style="fill:#9ce65f;opacity:255;"></rect><rect id="8-4" x="28" y="12" width="4" height="4" shape-rendering="crispEdges" style="fill:#9ce65f;opacity:255;"></rect><rect id="9-4" x="32" y="12" width="4" height="4" shape-rendering="crispEdges" style="fill:#9ce65f;opacity:255;"></rect><rect id="10-4" x="36" y="12" width="4" height="4" shape-rendering="crispEdges" style="fill:#9ce65f;opacity:255;"></rect><rect id="11-4" x="40" y="12" width="4" height="4" shape-rendering="crispEdges" style="fill:#4c6934;opacity:255;"></rect><rect id="12-4" x="44" y="12" width="4" height="4" shape-rendering="crispEdges" style="fill:#9ce65f;opacity:255;"></rect><rect id="13-4" x="48" y="12" width="4" height="4" shape-rendering="crispEdges" style="fill:#9ce65f;opacity:255;"></rect><rect id="14-4" x="52" y="12" width="4" height="4" shape-rendering="crispEdges" style="fill:#1f2929;opacity:255;"></rect><rect id="16-4" x="60" y="12" width="4" height="4" shape-rendering="crispEdges" style="fill:#ffffff;opacity:255;"></rect><rect id="1-5" x="0" y="16" width="4" height="4" shape-rendering="crispEdges" style="fill:#ffffff;opacity:255;"></rect><rect id="4-5" x="12" y="16" width="4" height="4" shape-rendering="crispEdges" style="fill:#1f2929;opacity:255;"></rect><rect id="5-5" x="16" y="16" width="4" height="4" shape-rendering="crispEdges" style="fill:#6ebf41;opacity:255;"></rect><rect id="6-5" x="20" y="16" width="4" height="4" shape-rendering="crispEdges" style="fill:#1f2929;opacity:255;"></rect><rect id="7-5" x="24" y="16" width="4" height="4" shape-rendering="crispEdges" style="fill:#6ebf41;opacity:255;"></rect><rect id="8-5" x="28" y="16" width="4" height="4" shape-rendering="crispEdges" style="fill:#6ebf41;opacity:255;"></rect><rect id="9-5" x="32" y="16" width="4" height="4" shape-rendering="crispEdges" style="fill:#6ebf41;opacity:255;"></rect><rect id="10-5" x="36" y="16" width="4" height="4" shape-rendering="crispEdges" style="fill:#6ebf41;opacity:255;"></rect><rect id="11-5" x="40" y="16" width="4" height="4" shape-rendering="crispEdges" style="fill:#9ce65f;opacity:255;"></rect><rect id="12-5" x="44" y="16" width="4" height="4" shape-rendering="crispEdges" style="fill:#9ce65f;opacity:255;"></rect><rect id="13-5" x="48" y="16" width="4" height="4" shape-rendering="crispEdges" style="fill:#9ce65f;opacity:255;"></rect><rect id="14-5" x="52" y="16" width="4" height="4" shape-rendering="crispEdges" style="fill:#1f2929;opacity:255;"></rect><rect id="16-5" x="60" y="16" width="4" height="4" shape-rendering="crispEdges" style="fill:#ffffff;opacity:255;"></rect><rect id="1-6" x="0" y="20" width="4" height="4" shape-rendering="crispEdges" style="fill:#ffffff;opacity:255;"></rect><rect id="3-6" x="8" y="20" width="4" height="4" shape-rendering="crispEdges" style="fill:#1f2929;opacity:255;"></rect><rect id="4-6" x="12" y="20" width="4" height="4" shape-rendering="crispEdges" style="fill:#6ebf41;opacity:255;"></rect><rect id="5-6" x="16" y="20" width="4" height="4" shape-rendering="crispEdges" style="fill:#1f2929;opacity:255;"></rect><rect id="6-6" x="20" y="20" width="4" height="4" shape-rendering="crispEdges" style="fill:#6ebf41;opacity:255;"></rect><rect id="7-6" x="24" y="20" width="4" height="4" shape-rendering="crispEdges" style="fill:#1f2929;opacity:255;"></rect><rect id="8-6" x="28" y="20" width="4" height="4" shape-rendering="crispEdges" style="fill:#6ebf41;opacity:255;"></rect><rect id="9-6" x="32" y="20" width="4" height="4" shape-rendering="crispEdges" style="fill:#6ebf41;opacity:255;"></rect><rect id="10-6" x="36" y="20" width="4" height="4" shape-rendering="crispEdges" style="fill:#6ebf41;opacity:255;"></rect><rect id="11-6" x="40" y="20" width="4" height="4" shape-rendering="crispEdges" style="fill:#1f2929;opacity:255;"></rect><rect id="12-6" x="44" y="20" width="4" height="4" shape-rendering="crispEdges" style="fill:#1f2929;opacity:255;"></rect><rect id="13-6" x="48" y="20" width="4" height="4" shape-rendering="crispEdges" style="fill:#1f2929;opacity:255;"></rect><rect id="14-6" x="52" y="20" width="4" height="4" shape-rendering="crispEdges" style="fill:#1f2929;opacity:255;"></rect><rect id="16-6" x="60" y="20" width="4" height="4" shape-rendering="crispEdges" style="fill:#ffffff;opacity:255;"></rect><rect id="1-7" x="0" y="24" width="4" height="4" shape-rendering="crispEdges" style="fill:#ffffff;opacity:255;"></rect><rect id="2-7" x="4" y="24" width="4" height="4" shape-rendering="crispEdges" style="fill:#1f2929;opacity:255;"></rect><rect id="3-7" x="8" y="24" width="4" height="4" shape-rendering="crispEdges" style="fill:#6ebf41;opacity:255;"></rect><rect id="4-7" x="12" y="24" width="4" height="4" shape-rendering="crispEdges" style="fill:#6ebf41;opacity:255;"></rect><rect id="5-7" x="16" y="24" width="4" height="4" shape-rendering="crispEdges" style="fill:#6ebf41;opacity:255;"></rect><rect id="6-7" x="20" y="24" width="4" height="4" shape-rendering="crispEdges" style="fill:#6ebf41;opacity:255;"></rect><rect id="7-7" x="24" y="24" width="4" height="4" shape-rendering="crispEdges" style="fill:#6ebf41;opacity:255;"></rect><rect id="8-7" x="28" y="24" width="4" height="4" shape-rendering="crispEdges" style="fill:#6ebf41;opacity:255;"></rect><rect id="9-7" x="32" y="24" width="4" height="4" shape-rendering="crispEdges" style="fill:#1f2929;opacity:255;"></rect><rect id="10-7" x="36" y="24" width="4" height="4" shape-rendering="crispEdges" style="fill:#1f2929;opacity:255;"></rect><rect id="11-7" x="40" y="24" width="4" height="4" shape-rendering="crispEdges" style="fill:#1f2929;opacity:255;"></rect><rect id="12-7" x="44" y="24" width="4" height="4" shape-rendering="crispEdges" style="fill:#1f2929;opacity:255;"></rect><rect id="13-7" x="48" y="24" width="4" height="4" shape-rendering="crispEdges" style="fill:#1f2929;opacity:255;"></rect><rect id="16-7" x="60" y="24" width="4" height="4" shape-rendering="crispEdges" style="fill:#ffffff;opacity:255;"></rect><rect id="1-8" x="0" y="28" width="4" height="4" shape-rendering="crispEdges" style="fill:#ffffff;opacity:255;"></rect><rect id="2-8" x="4" y="28" width="4" height="4" shape-rendering="crispEdges" style="fill:#1f2929;opacity:255;"></rect><rect id="3-8" x="8" y="28" width="4" height="4" shape-rendering="crispEdges" style="fill:#6ebf41;opacity:255;"></rect><rect id="4-8" x="12" y="28" width="4" height="4" shape-rendering="crispEdges" style="fill:#6ebf41;opacity:255;"></rect><rect id="5-8" x="16" y="28" width="4" height="4" shape-rendering="crispEdges" style="fill:#6ebf41;opacity:255;"></rect><rect id="6-8" x="20" y="28" width="4" height="4" shape-rendering="crispEdges" style="fill:#6ebf41;opacity:255;"></rect><rect id="7-8" x="24" y="28" width="4" height="4" shape-rendering="crispEdges" style="fill:#1f2929;opacity:255;"></rect><rect id="8-8" x="28" y="28" width="4" height="4" shape-rendering="crispEdges" style="fill:#1f2929;opacity:255;"></rect><rect id="9-8" x="32" y="28" width="4" height="4" shape-rendering="crispEdges" style="fill:#1f2929;opacity:255;"></rect><rect id="10-8" x="36" y="28" width="4" height="4" shape-rendering="crispEdges" style="fill:#1f2929;opacity:255;"></rect><rect id="11-8" x="40" y="28" width="4" height="4" shape-rendering="crispEdges" style="fill:#1f2929;opacity:255;"></rect><rect id="12-8" x="44" y="28" width="4" height="4" shape-rendering="crispEdges" style="fill:#1f2929;opacity:255;"></rect><rect id="16-8" x="60" y="28" width="4" height="4" shape-rendering="crispEdges" style="fill:#ffffff;opacity:255;"></rect><rect id="1-9" x="0" y="32" width="4" height="4" shape-rendering="crispEdges" style="fill:#ffffff;opacity:255;"></rect><rect id="2-9" x="4" y="32" width="4" height="4" shape-rendering="crispEdges" style="fill:#1f2929;opacity:255;"></rect><rect id="3-9" x="8" y="32" width="4" height="4" shape-rendering="crispEdges" style="fill:#6ebf41;opacity:255;"></rect><rect id="4-9" x="12" y="32" width="4" height="4" shape-rendering="crispEdges" style="fill:#6ebf41;opacity:255;"></rect><rect id="5-9" x="16" y="32" width="4" height="4" shape-rendering="crispEdges" style="fill:#1f2929;opacity:255;"></rect><rect id="6-9" x="20" y="32" width="4" height="4" shape-rendering="crispEdges" style="fill:#1f2929;opacity:255;"></rect><rect id="7-9" x="24" y="32" width="4" height="4" shape-rendering="crispEdges" style="fill:#1f2929;opacity:255;"></rect><rect id="8-9" x="28" y="32" width="4" height="4" shape-rendering="crispEdges" style="fill:#1f2929;opacity:255;"></rect><rect id="9-9" x="32" y="32" width="4" height="4" shape-rendering="crispEdges" style="fill:#1f2929;opacity:255;"></rect><rect id="10-9" x="36" y="32" width="4" height="4" shape-rendering="crispEdges" style="fill:#1f2929;opacity:255;"></rect><rect id="16-9" x="60" y="32" width="4" height="4" shape-rendering="crispEdges" style="fill:#ffffff;opacity:255;"></rect><rect id="1-10" x="0" y="36" width="4" height="4" shape-rendering="crispEdges" style="fill:#ffffff;opacity:255;"></rect><rect id="2-10" x="4" y="36" width="4" height="4" shape-rendering="crispEdges" style="fill:#4c6934;opacity:255;"></rect><rect id="3-10" x="8" y="36" width="4" height="4" shape-rendering="crispEdges" style="fill:#6ebf41;opacity:255;"></rect><rect id="4-10" x="12" y="36" width="4" height="4" shape-rendering="crispEdges" style="fill:#6ebf41;opacity:255;"></rect><rect id="5-10" x="16" y="36" width="4" height="4" shape-rendering="crispEdges" style="fill:#1f2929;opacity:255;"></rect><rect id="6-10" x="20" y="36" width="4" height="4" shape-rendering="crispEdges" style="fill:#1f2929;opacity:255;"></rect><rect id="7-10" x="24" y="36" width="4" height="4" shape-rendering="crispEdges" style="fill:#1f2929;opacity:255;"></rect><rect id="8-10" x="28" y="36" width="4" height="4" shape-rendering="crispEdges" style="fill:#754187;opacity:255;"></rect><rect id="9-10" x="32" y="36" width="4" height="4" shape-rendering="crispEdges" style="fill:#1f2929;opacity:255;"></rect><rect id="16-10" x="60" y="36" width="4" height="4" shape-rendering="crispEdges" style="fill:#ffffff;opacity:255;"></rect><rect id="1-11" x="0" y="40" width="4" height="4" shape-rendering="crispEdges" style="fill:#ffffff;opacity:255;"></rect><rect id="2-11" x="4" y="40" width="4" height="4" shape-rendering="crispEdges" style="fill:#4c6934;opacity:255;"></rect><rect id="3-11" x="8" y="40" width="4" height="4" shape-rendering="crispEdges" style="fill:#4c6934;opacity:255;"></rect><rect id="4-11" x="12" y="40" width="4" height="4" shape-rendering="crispEdges" style="fill:#6ebf41;opacity:255;"></rect><rect id="5-11" x="16" y="40" width="4" height="4" shape-rendering="crispEdges" style="fill:#6ebf41;opacity:255;"></rect><rect id="6-11" x="20" y="40" width="4" height="4" shape-rendering="crispEdges" style="fill:#1f2929;opacity:255;"></rect><rect id="7-11" x="24" y="40" width="4" height="4" shape-rendering="crispEdges" style="fill:#754187;opacity:255;"></rect><rect id="8-11" x="28" y="40" width="4" height="4" shape-rendering="crispEdges" style="fill:#d55664;opacity:255;"></rect><rect id="9-11" x="32" y="40" width="4" height="4" shape-rendering="crispEdges" style="fill:#d55664;opacity:255;"></rect><rect id="10-11" x="36" y="40" width="4" height="4" shape-rendering="crispEdges" style="fill:#1f2929;opacity:255;"></rect><rect id="16-11" x="60" y="40" width="4" height="4" shape-rendering="crispEdges" style="fill:#ffffff;opacity:255;"></rect><rect id="1-12" x="0" y="44" width="4" height="4" shape-rendering="crispEdges" style="fill:#ffffff;opacity:255;"></rect><rect id="2-12" x="4" y="44" width="4" height="4" shape-rendering="crispEdges" style="fill:#4c6934;opacity:255;"></rect><rect id="3-12" x="8" y="44" width="4" height="4" shape-rendering="crispEdges" style="fill:#1f2929;opacity:255;"></rect><rect id="4-12" x="12" y="44" width="4" height="4" shape-rendering="crispEdges" style="fill:#4c6934;opacity:255;"></rect><rect id="5-12" x="16" y="44" width="4" height="4" shape-rendering="crispEdges" style="fill:#6ebf41;opacity:255;"></rect><rect id="6-12" x="20" y="44" width="4" height="4" shape-rendering="crispEdges" style="fill:#6ebf41;opacity:255;"></rect><rect id="7-12" x="24" y="44" width="4" height="4" shape-rendering="crispEdges" style="fill:#1f2929;opacity:255;"></rect><rect id="8-12" x="28" y="44" width="4" height="4" shape-rendering="crispEdges" style="fill:#754187;opacity:255;"></rect><rect id="9-12" x="32" y="44" width="4" height="4" shape-rendering="crispEdges" style="fill:#d55664;opacity:255;"></rect><rect id="10-12" x="36" y="44" width="4" height="4" shape-rendering="crispEdges" style="fill:#d55664;opacity:255;"></rect><rect id="11-12" x="40" y="44" width="4" height="4" shape-rendering="crispEdges" style="fill:#1f2929;opacity:255;"></rect><rect id="16-12" x="60" y="44" width="4" height="4" shape-rendering="crispEdges" style="fill:#ffffff;opacity:255;"></rect><rect id="1-13" x="0" y="48" width="4" height="4" shape-rendering="crispEdges" style="fill:#ffffff;opacity:255;"></rect><rect id="2-13" x="4" y="48" width="4" height="4" shape-rendering="crispEdges" style="fill:#6ebf41;opacity:255;"></rect><rect id="3-13" x="8" y="48" width="4" height="4" shape-rendering="crispEdges" style="fill:#4c6934;opacity:255;"></rect><rect id="4-13" x="12" y="48" width="4" height="4" shape-rendering="crispEdges" style="fill:#1f2929;opacity:255;"></rect><rect id="5-13" x="16" y="48" width="4" height="4" shape-rendering="crispEdges" style="fill:#4c6934;opacity:255;"></rect><rect id="6-13" x="20" y="48" width="4" height="4" shape-rendering="crispEdges" style="fill:#6ebf41;opacity:255;"></rect><rect id="7-13" x="24" y="48" width="4" height="4" shape-rendering="crispEdges" style="fill:#6ebf41;opacity:255;"></rect><rect id="8-13" x="28" y="48" width="4" height="4" shape-rendering="crispEdges" style="fill:#1f2929;opacity:255;"></rect><rect id="9-13" x="32" y="48" width="4" height="4" shape-rendering="crispEdges" style="fill:#1f2929;opacity:255;"></rect><rect id="10-13" x="36" y="48" width="4" height="4" shape-rendering="crispEdges" style="fill:#1f2929;opacity:255;"></rect><rect id="11-13" x="40" y="48" width="4" height="4" shape-rendering="crispEdges" style="fill:#1f2929;opacity:255;"></rect><rect id="12-13" x="44" y="48" width="4" height="4" shape-rendering="crispEdges" style="fill:#1f2929;opacity:255;"></rect><rect id="16-13" x="60" y="48" width="4" height="4" shape-rendering="crispEdges" style="fill:#ffffff;opacity:255;"></rect><rect id="1-14" x="0" y="52" width="4" height="4" shape-rendering="crispEdges" style="fill:#ffffff;opacity:255;"></rect><rect id="2-14" x="4" y="52" width="4" height="4" shape-rendering="crispEdges" style="fill:#6ebf41;opacity:255;"></rect><rect id="3-14" x="8" y="52" width="4" height="4" shape-rendering="crispEdges" style="fill:#4c6934;opacity:255;"></rect><rect id="4-14" x="12" y="52" width="4" height="4" shape-rendering="crispEdges" style="fill:#4c6934;opacity:255;"></rect><rect id="5-14" x="16" y="52" width="4" height="4" shape-rendering="crispEdges" style="fill:#1f2929;opacity:255;"></rect><rect id="6-14" x="20" y="52" width="4" height="4" shape-rendering="crispEdges" style="fill:#1f2929;opacity:255;"></rect><rect id="7-14" x="24" y="52" width="4" height="4" shape-rendering="crispEdges" style="fill:#4c6934;opacity:255;"></rect><rect id="8-14" x="28" y="52" width="4" height="4" shape-rendering="crispEdges" style="fill:#6ebf41;opacity:255;"></rect><rect id="9-14" x="32" y="52" width="4" height="4" shape-rendering="crispEdges" style="fill:#6ebf41;opacity:255;"></rect><rect id="10-14" x="36" y="52" width="4" height="4" shape-rendering="crispEdges" style="fill:#6ebf41;opacity:255;"></rect><rect id="11-14" x="40" y="52" width="4" height="4" shape-rendering="crispEdges" style="fill:#9ce65f;opacity:255;"></rect><rect id="12-14" x="44" y="52" width="4" height="4" shape-rendering="crispEdges" style="fill:#1f2929;opacity:255;"></rect><rect id="16-14" x="60" y="52" width="4" height="4" shape-rendering="crispEdges" style="fill:#ffffff;opacity:255;"></rect><rect id="1-15" x="0" y="56" width="4" height="4" shape-rendering="crispEdges" style="fill:#ffffff;opacity:255;"></rect><rect id="2-15" x="4" y="56" width="4" height="4" shape-rendering="crispEdges" style="fill:#6ebf41;opacity:255;"></rect><rect id="3-15" x="8" y="56" width="4" height="4" shape-rendering="crispEdges" style="fill:#6ebf41;opacity:255;"></rect><rect id="4-15" x="12" y="56" width="4" height="4" shape-rendering="crispEdges" style="fill:#4c6934;opacity:255;"></rect><rect id="5-15" x="16" y="56" width="4" height="4" shape-rendering="crispEdges" style="fill:#4c6934;opacity:255;"></rect><rect id="6-15" x="20" y="56" width="4" height="4" shape-rendering="crispEdges" style="fill:#4c6934;opacity:255;"></rect><rect id="7-15" x="24" y="56" width="4" height="4" shape-rendering="crispEdges" style="fill:#1f2929;opacity:255;"></rect><rect id="8-15" x="28" y="56" width="4" height="4" shape-rendering="crispEdges" style="fill:#1f2929;opacity:255;"></rect><rect id="9-15" x="32" y="56" width="4" height="4" shape-rendering="crispEdges" style="fill:#1f2929;opacity:255;"></rect><rect id="10-15" x="36" y="56" width="4" height="4" shape-rendering="crispEdges" style="fill:#1f2929;opacity:255;"></rect><rect id="11-15" x="40" y="56" width="4" height="4" shape-rendering="crispEdges" style="fill:#1f2929;opacity:255;"></rect><rect id="16-15" x="60" y="56" width="4" height="4" shape-rendering="crispEdges" style="fill:#ffffff;opacity:255;"></rect><rect id="1-16" x="0" y="60" width="4" height="4" shape-rendering="crispEdges" style="fill:#ffffff;opacity:255;"></rect><rect id="2-16" x="4" y="60" width="4" height="4" shape-rendering="crispEdges" style="fill:#ffffff;opacity:255;"></rect><rect id="3-16" x="8" y="60" width="4" height="4" shape-rendering="crispEdges" style="fill:#ffffff;opacity:255;"></rect><rect id="4-16" x="12" y="60" width="4" height="4" shape-rendering="crispEdges" style="fill:#ffffff;opacity:255;"></rect><rect id="5-16" x="16" y="60" width="4" height="4" shape-rendering="crispEdges" style="fill:#ffffff;opacity:255;"></rect><rect id="6-16" x="20" y="60" width="4" height="4" shape-rendering="crispEdges" style="fill:#ffffff;opacity:255;"></rect><rect id="7-16" x="24" y="60" width="4" height="4" shape-rendering="crispEdges" style="fill:#ffffff;opacity:255;"></rect><rect id="8-16" x="28" y="60" width="4" height="4" shape-rendering="crispEdges" style="fill:#ffffff;opacity:255;"></rect><rect id="9-16" x="32" y="60" width="4" height="4" shape-rendering="crispEdges" style="fill:#ffffff;opacity:255;"></rect><rect id="10-16" x="36" y="60" width="4" height="4" shape-rendering="crispEdges" style="fill:#ffffff;opacity:255;"></rect><rect id="11-16" x="40" y="60" width="4" height="4" shape-rendering="crispEdges" style="fill:#ffffff;opacity:255;"></rect><rect id="12-16" x="44" y="60" width="4" height="4" shape-rendering="crispEdges" style="fill:#ffffff;opacity:255;"></rect><rect id="13-16" x="48" y="60" width="4" height="4" shape-rendering="crispEdges" style="fill:#ffffff;opacity:255;"></rect><rect id="14-16" x="52" y="60" width="4" height="4" shape-rendering="crispEdges" style="fill:#ffffff;opacity:255;"></rect><rect id="15-16" x="56" y="60" width="4" height="4" shape-rendering="crispEdges" style="fill:#ffffff;opacity:255;"></rect><rect id="16-16" x="60" y="60" width="4" height="4" shape-rendering="crispEdges" style="fill:#ffffff;opacity:255;"></rect></svg>